# Blender v2.90.0 OBJ File: ''
# www.blender.org
o 3
v 2.778982 0.078051 4.585487
v 2.705159 0.384529 4.492476
v 3.392149 0.384529 4.180310
v 3.413742 0.078051 4.297054
v 2.364731 0.078051 5.117260
v 2.256823 0.384529 5.068004
v 2.239473 0.078051 5.792807
v 2.121258 0.384529 5.799138
v 2.450961 0.078051 6.466558
v 2.350148 0.384529 6.528327
v 2.931233 0.078051 6.942357
v 2.869938 0.384529 7.043276
v 3.580171 0.078051 7.146284
v 3.572273 0.384529 7.263982
v 4.277439 0.078051 7.017318
v 4.326913 0.384529 7.124404
v 4.810505 0.078051 6.594769
v 4.903842 0.384529 6.667087
v 5.088820 0.078051 5.978664
v 5.205057 0.384529 6.000287
v 5.045329 0.078051 5.273840
v 5.157987 0.384529 5.237468
v 4.686727 0.078051 4.687787
v 4.769878 0.384529 4.603193
v 4.109676 0.078051 4.339364
v 4.145347 0.384529 4.226100
v 2.705159 4.273012 4.492476
v 3.392149 4.273012 4.180310
v 2.256823 4.273012 5.068004
v 2.121258 4.273012 5.799138
v 2.350148 4.273012 6.528327
v 2.869938 4.273012 7.043276
v 3.572273 4.273012 7.263982
v 4.326913 4.273012 7.124404
v 4.903842 2.328770 6.667087
v 4.903842 4.273012 6.667087
v 4.757569 2.328770 6.083054
v 4.710500 2.328770 5.320235
v 4.769878 2.328770 4.603193
v 4.145347 4.273012 4.226100
v 4.769878 4.273012 4.603193
v 2.742201 4.415111 4.539485
v 2.815203 4.592491 4.630971
v 3.424311 4.592491 4.354195
v 3.403042 4.415111 4.239201
v 2.310931 4.415111 5.093105
v 2.417693 4.592491 5.141253
v 2.180526 4.415111 5.796409
v 2.297497 4.592491 5.789500
v 2.400704 4.415111 6.497842
v 2.500438 4.592491 6.436024
v 2.900708 4.415111 6.993189
v 2.961301 4.592491 6.892594
v 3.576309 4.415111 7.205495
v 3.584014 4.592491 7.088280
v 4.302225 4.415111 7.071230
v 4.253103 4.592491 6.964526
v 4.857193 4.415111 6.631320
v 4.764627 4.592491 6.559053
v 5.152814 4.322004 6.021647
v 5.037566 4.499384 5.999592
v 5.101664 4.415111 5.256118
v 4.989961 4.592491 5.291506
v 4.728328 4.415111 4.645987
v 4.645851 4.592491 4.729136
v 4.127569 4.415111 4.283249
v 4.092120 4.592491 4.394794
v 2.815203 4.769885 4.630971
v 3.424311 4.769885 4.354195
v 2.417693 4.769885 5.141253
v 2.297497 4.769884 5.789500
v 2.500438 4.769884 6.436024
v 2.961301 4.769884 6.892594
v 3.584014 4.769884 7.088280
v 4.253103 4.769884 6.964526
v 4.764627 4.769884 6.559053
v 5.037566 4.676777 5.999592
v 4.989961 4.769885 5.291506
v 4.645851 4.769885 4.729136
v 4.092120 4.769885 4.394794
v 2.929020 4.575644 4.773896
v 3.457520 4.575644 4.533747
v 2.584116 4.575644 5.216649
v 2.479826 4.575643 5.779108
v 2.655910 4.575643 6.340073
v 3.055784 4.575643 6.736222
v 3.596089 4.575643 6.906011
v 4.176633 4.575643 6.798634
v 4.620463 4.575643 6.446821
v 4.852188 4.501946 5.933852
v 4.815977 4.575644 5.347017
v 4.517406 4.575644 4.859070
v 4.036953 4.575644 4.568973
v 3.450007 0.184350 4.493126
v 4.049829 0.184350 4.529593
v 4.545726 0.184350 4.829015
v 4.854409 0.184350 5.333487
v 4.891933 0.184350 5.941603
v 4.652711 0.184350 6.471168
v 4.194266 0.184350 6.834566
v 3.592475 0.184350 6.945873
v 3.034378 0.184350 6.770493
v 2.621567 0.184350 6.361527
v 2.439097 0.184350 5.780220
v 2.546918 0.184350 5.198712
v 2.902911 0.184350 4.741724
v 2.946641 4.543712 5.630417
v 2.946641 4.575643 5.630417
v 2.832295 4.575643 5.599367
v 2.832295 4.543712 5.599367
v 2.757334 4.575643 5.875423
v 2.871680 4.575643 5.906473
v 2.974491 4.575643 5.847574
v 3.005541 4.575643 5.733227
v 2.698434 4.575643 5.772612
v 2.729485 4.575643 5.658266
v 2.974491 4.543712 5.847574
v 3.005541 4.543712 5.733227
v 2.729485 4.543712 5.658266
v 2.698434 4.543712 5.772612
v 2.757334 4.543712 5.875423
v 2.871680 4.543712 5.906473
v 5.210929 4.179905 6.032033
v 5.157987 4.273012 5.237468
vt 0.390491 0.095175
vt 0.416712 0.053363
vt 0.503986 0.141772
vt 0.459593 0.166259
vt 0.300543 0.065084
vt 0.304593 0.016436
vt 0.205374 0.079127
vt 0.186793 0.034352
vt 0.125531 0.137533
vt 0.088090 0.106341
vt 0.083034 0.222640
vt 0.034856 0.211916
vt 0.084431 0.319457
vt 0.035701 0.333248
vt 0.135635 0.405931
vt 0.100637 0.440179
vt 0.216712 0.455732
vt 0.201298 0.501641
vt 0.310303 0.464041
vt 0.317138 0.511625
vt 0.400992 0.427245
vt 0.429048 0.466136
vt 0.462179 0.354109
vt 0.505415 0.376000
vt 0.483562 0.262186
vt 0.532692 0.261929
vt 0.992325 0.584735
vt 0.989544 0.974995
vt 0.913811 0.974455
vt 0.916592 0.584196
vt 0.093311 0.578329
vt 0.090530 0.968588
vt 0.017310 0.968067
vt 0.020091 0.577808
vt 0.167940 0.578861
vt 0.165159 0.969120
vt 0.244644 0.579408
vt 0.241863 0.969667
vt 0.318078 0.579931
vt 0.315297 0.970190
vt 0.391964 0.580458
vt 0.389183 0.970716
vt 0.468987 0.581007
vt 0.466206 0.971265
vt 0.542873 0.581533
vt 0.541483 0.776662
vt 0.540092 0.971792
vt 0.616306 0.582056
vt 0.614916 0.777186
vt 0.693011 0.582603
vt 0.691620 0.777732
vt 0.767640 0.583135
vt 0.766249 0.778264
vt 0.840859 0.583656
vt 0.838078 0.973915
vt 0.764859 0.973393
vt 0.367276 0.274726
vt 0.363063 0.299872
vt 0.281748 0.293329
vt 0.281748 0.267870
vt 0.447983 0.294567
vt 0.439804 0.318781
vt 0.525903 0.328119
vt 0.512903 0.349688
vt 0.104267 0.188818
vt 0.112969 0.209144
vt 0.050618 0.242171
vt 0.037762 0.224577
vt 0.172468 0.165717
vt 0.177845 0.187090
vt 0.243610 0.153507
vt 0.245617 0.175405
vt 0.318766 0.152630
vt 0.317203 0.174563
vt 0.390131 0.163306
vt 0.385214 0.184786
vt 0.458799 0.184932
vt 0.450538 0.205436
vt 0.526044 0.219245
vt 0.513572 0.237109
vt 0.115511 0.294567
vt 0.123690 0.318781
vt 0.050589 0.349690
vt 0.037588 0.328119
vt 0.196220 0.274725
vt 0.200433 0.299872
vt 0.359667 0.320726
vt 0.281748 0.314431
vt 0.433147 0.338919
vt 0.504817 0.368972
vt 0.120216 0.225998
vt 0.059044 0.258186
vt 0.182360 0.204783
vt 0.247280 0.193556
vt 0.315949 0.192748
vt 0.381083 0.202569
vt 0.443656 0.222439
vt 0.505494 0.253297
vt 0.130347 0.338920
vt 0.058675 0.368974
vt 0.203829 0.320726
vt 0.484095 0.238564
vt 0.444369 0.247536
vt 0.405996 0.170331
vt 0.437011 0.143862
vt 0.482917 0.340716
vt 0.443387 0.330503
vt 0.434073 0.433154
vt 0.403581 0.405498
vt 0.343171 0.493694
vt 0.329228 0.454427
vt 0.238115 0.504012
vt 0.244000 0.463070
vt 0.141503 0.463974
vt 0.165871 0.430849
vt 0.072463 0.380877
vt 0.109400 0.363167
vt 0.051188 0.279650
vt 0.091963 0.280864
vt 0.078160 0.180429
vt 0.113791 0.200261
vt 0.151105 0.102097
vt 0.173274 0.136332
vt 0.249608 0.068003
vt 0.253616 0.108591
vt 0.350892 0.082471
vt 0.335891 0.120316
vt 0.431025 0.181973
vt 0.452107 0.262488
vt 0.434259 0.340229
vt 0.382889 0.402431
vt 0.305782 0.433379
vt 0.226586 0.426045
vt 0.158113 0.383767
vt 0.115836 0.310539
vt 0.114007 0.229582
vt 0.149615 0.157710
vt 0.217167 0.107910
vt 0.297740 0.096348
vt 0.373605 0.121841
vt 0.069982 0.485378
vt 0.069990 0.488446
vt 0.058607 0.488479
vt 0.058598 0.485411
vt 0.362321 0.390086
vt 0.346678 0.382316
vt 0.339301 0.366477
vt 0.346053 0.350568
vt 0.378854 0.384147
vt 0.385797 0.368221
vt 0.363061 0.344730
vt 0.379279 0.351862
vt 0.036637 0.476258
vt 0.048931 0.463945
vt 0.066330 0.463931
vt 0.078643 0.476225
vt 0.047223 0.488512
vt 0.047214 0.485444
vt 0.078657 0.493624
vt 0.066364 0.505937
vt 0.048964 0.505951
vt 0.036651 0.493658
vt 0.035839 0.488546
vt 0.035830 0.485478
vt 0.081365 0.482143
vt 0.081374 0.485211
vt 0.069990 0.485245
vt 0.069982 0.482177
vt 0.047214 0.482243
vt 0.047223 0.485311
vt 0.035839 0.485345
vt 0.035830 0.482277
vt 0.058607 0.485278
vt 0.058598 0.482210
vt 0.081365 0.485345
vt 0.081374 0.488412
vt 0.464792 0.170361
vt 0.534648 0.205960
vt 0.393698 0.148055
vt 0.319877 0.137055
vt 0.242146 0.137958
vt 0.168573 0.150543
vt 0.097961 0.174377
vt 0.028873 0.211477
vt 0.453712 0.277241
vt 0.534648 0.312075
vt 0.370175 0.256760
vt 0.281748 0.249691
vt 0.193321 0.256759
vt 0.109782 0.277240
vt 0.028843 0.312075
vt 0.690230 0.972862
vt 0.613526 0.972315
vn -0.5773 -0.3613 -0.7323
vn -0.6086 -0.1841 -0.7718
vn -0.1788 -0.1841 -0.9665
vn -0.1696 -0.3612 -0.9169
vn -0.8505 -0.3609 -0.3825
vn -0.8965 -0.1839 -0.4031
vn -0.9311 -0.3603 0.0563
vn -0.9812 -0.1836 0.0594
vn -0.7969 -0.3599 0.4852
vn -0.8395 -0.1834 0.5114
vn -0.4817 -0.3595 0.7992
vn -0.5076 -0.1832 0.8419
vn -0.0568 -0.3592 0.9315
vn -0.0597 -0.1830 0.9813
vn 0.3858 -0.3592 0.8498
vn 0.4067 -0.1830 0.8950
vn 0.7357 -0.3595 0.5740
vn 0.7120 -0.2428 0.6589
vn 0.9177 -0.3599 0.1681
vn 0.9177 -0.3599 0.1684
vn 0.8896 -0.3603 -0.2805
vn 0.8896 -0.3603 -0.2808
vn 0.6577 -0.3609 -0.6612
vn 0.6231 -0.2438 -0.7432
vn 0.2771 -0.3613 -0.8903
vn 0.2923 -0.1841 -0.9384
vn -0.6069 0.1984 -0.7696
vn -0.1783 0.1986 -0.9637
vn -0.8940 0.1978 -0.4020
vn -0.9786 0.1969 0.0593
vn -0.8374 0.1960 0.5101
vn -0.5064 0.1953 0.8399
vn -0.0596 0.1948 0.9790
vn 0.4541 0.1556 0.8772
vn 0.6212 0.0000 0.7837
vn 0.7141 0.2594 0.6502
vn 0.9607 0.2136 0.1771
vn 0.9989 0.0368 0.0276
vn 0.8949 0.1888 0.4043
vn 0.9496 0.2277 -0.2153
vn 0.9536 0.0000 -0.3010
vn 0.9966 0.0000 0.0825
vn 0.3410 0.1585 -0.9266
vn 0.6196 0.2621 -0.7399
vn 0.5169 0.0000 -0.8561
vn -0.5460 0.4717 -0.6924
vn -0.5165 0.5507 -0.6557
vn -0.1518 0.5504 -0.8210
vn -0.1604 0.4716 -0.8671
vn -0.8045 0.4712 -0.3617
vn -0.7611 0.5510 -0.3422
vn -0.8808 0.4705 0.0533
vn -0.8329 0.5512 0.0505
vn -0.7538 0.4700 0.4591
vn -0.7124 0.5517 0.4338
vn -0.4559 0.4695 0.7561
vn -0.4306 0.5520 0.7140
vn -0.0535 0.4691 0.8815
vn -0.0503 0.5521 0.8322
vn 0.3653 0.4691 0.8040
vn 0.3449 0.5521 0.7590
vn 0.7074 0.4714 0.5267
vn 0.6721 0.5547 0.4905
vn 0.8695 0.4654 0.1656
vn 0.8236 0.5453 0.1561
vn 0.8477 0.4731 -0.2401
vn 0.8024 0.5548 -0.2199
vn 0.6219 0.4712 -0.6255
vn 0.5884 0.5510 -0.5918
vn 0.2622 0.4717 -0.8419
vn 0.2482 0.5507 -0.7969
vn -0.6192 0.0000 -0.7852
vn -0.1819 0.0000 -0.9833
vn -0.9120 0.0000 -0.4101
vn -0.9982 0.0000 0.0604
vn -0.8540 0.0000 0.5202
vn -0.5164 0.0000 0.8564
vn -0.0608 0.0000 0.9982
vn 0.4138 0.0000 0.9104
vn 0.7793 0.0000 0.6266
vn 0.9814 -0.0000 0.1921
vn 0.9814 -0.0000 0.1922
vn 0.9529 0.0000 -0.3032
vn 0.9529 0.0000 -0.3033
vn 0.7050 0.0000 -0.7092
vn 0.2974 0.0000 -0.9548
vn 0.4509 0.6851 0.5721
vn 0.4510 0.6851 0.5720
vn 0.1325 0.6849 0.7165
vn 0.6643 0.6851 0.2989
vn 0.6643 0.6851 0.2988
vn 0.7272 0.6850 -0.0438
vn 0.7272 0.6850 -0.0439
vn 0.6223 0.6851 -0.3787
vn 0.6224 0.6851 -0.3785
vn 0.3762 0.6851 -0.6238
vn 0.3761 0.6851 -0.6238
vn 0.0441 0.6851 -0.7271
vn 0.0443 0.6851 -0.7271
vn -0.3013 0.6851 -0.6633
vn -0.3010 0.6851 -0.6634
vn -0.5276 0.6968 -0.4859
vn -0.5894 0.7093 -0.3865
vn -0.6764 0.6882 0.2623
vn -0.7112 0.6900 0.1346
vn -0.5138 0.6851 0.5164
vn -0.5137 0.6851 0.5164
vn -0.2166 0.6851 0.6955
vn 0.0000 -1.0000 -0.0000
vn -0.2621 0.0000 0.9651
vn 0.0000 1.0000 0.0000
vn 0.0328 0.9994 -0.0064
vn -0.0692 0.9952 0.0693
vn -0.2205 0.9660 0.1349
vn -0.1362 0.9846 0.1099
vn 0.0074 0.9993 0.0357
vn 0.4971 0.0000 0.8677
vn 0.9651 0.0000 0.2621
vn 0.8677 0.0000 -0.4971
vn -0.9651 0.0000 -0.2621
vn 0.2621 0.0000 -0.9651
vn -0.8677 0.0000 0.4971
vn -0.4971 0.0000 -0.8677
vn 0.0856 -0.8824 0.4626
vn 0.2914 -0.8825 0.3693
vn 0.2910 -0.8825 0.3696
vn -0.1400 -0.8825 0.4491
vn -0.1397 -0.8825 0.4492
vn -0.3315 -0.8826 0.3333
vn -0.3313 -0.8826 0.3335
vn -0.4475 -0.8830 0.1413
vn -0.4610 -0.8834 -0.0844
vn -0.4611 -0.8834 -0.0842
vn -0.3694 -0.8835 -0.2882
vn -0.3695 -0.8835 -0.2880
vn -0.1936 -0.8838 -0.4259
vn -0.1936 -0.8838 -0.4260
vn 0.0285 -0.8838 -0.4670
vn 0.0284 -0.8838 -0.4670
vn 0.2418 -0.8835 -0.4013
vn 0.2421 -0.8835 -0.4011
vn 0.4002 -0.8834 -0.2440
vn 0.4003 -0.8834 -0.2438
vn 0.4684 -0.8830 -0.0285
vn 0.4684 -0.8830 -0.0281
vn 0.4288 -0.8826 0.1927
vn 0.4287 -0.8826 0.1930
vn 0.9082 0.3808 0.1738
vn 0.8853 0.3869 -0.2581
vn 0.9700 0.0000 -0.2429
vn 0.9461 -0.2318 -0.2261
vn 0.9665 -0.2393 -0.0924
vn 0.8333 -0.2135 -0.5099
vn 0.8701 -0.2007 0.4502
vn 0.8333 0.2135 -0.5099
s 1
f 1/1/1 2/2/2 3/3/3 4/4/4
f 5/5/5 6/6/6 2/2/2 1/1/1
f 7/7/7 8/8/8 6/6/6 5/5/5
f 9/9/9 10/10/10 8/8/8 7/7/7
f 11/11/11 12/12/12 10/10/10 9/9/9
f 13/13/13 14/14/14 12/12/12 11/11/11
f 15/15/15 16/16/16 14/14/14 13/13/13
f 17/17/17 18/18/18 16/16/16 15/15/15
f 19/19/19 20/20/20 18/18/18 17/17/17
f 21/21/21 22/22/22 20/20/20 19/19/19
f 23/23/23 24/24/24 22/22/22 21/21/21
f 25/25/25 26/26/26 24/24/24 23/23/23
f 4/4/4 3/3/3 26/26/26 25/25/25
f 2/27/2 27/28/27 28/29/28 3/30/3
f 6/31/6 29/32/29 27/33/27 2/34/2
f 8/35/8 30/36/30 29/32/29 6/31/6
f 10/37/10 31/38/31 30/36/30 8/35/8
f 12/39/12 32/40/32 31/38/31 10/37/10
f 14/41/14 33/42/33 32/40/32 12/39/12
f 16/43/16 34/44/34 33/42/33 14/41/14
f 18/45/18 35/46/35 36/47/36 34/44/34 16/43/16
f 20/48/37 37/49/38 18/45/39
f 22/50/40 38/51/41 37/49/38
f 24/52/42 39/53/42 38/51/42
f 26/54/26 40/55/43 41/56/44 39/53/45 24/52/24
f 3/30/3 28/29/28 40/55/43 26/54/26
f 42/57/46 43/58/47 44/59/48 45/60/49
f 46/61/50 47/62/51 43/58/47 42/57/46
f 48/63/52 49/64/53 47/62/51 46/61/50
f 50/65/54 51/66/55 49/67/53 48/68/52
f 52/69/56 53/70/57 51/66/55 50/65/54
f 54/71/58 55/72/59 53/70/57 52/69/56
f 56/73/60 57/74/61 55/72/59 54/71/58
f 58/75/62 59/76/63 57/74/61 56/73/60
f 60/77/64 61/78/65 59/76/63 58/75/62
f 62/79/66 63/80/67 61/78/65 60/77/64
f 64/81/68 65/82/69 63/83/67 62/84/66
f 66/85/70 67/86/71 65/82/69 64/81/68
f 45/60/49 44/59/48 67/86/71 66/85/70
f 43/58/72 68/87/72 69/88/73 44/59/73
f 47/62/74 70/89/74 68/87/72 43/58/72
f 49/64/75 71/90/75 70/89/74 47/62/74
f 51/66/76 72/91/76 71/92/75 49/67/75
f 53/70/77 73/93/77 72/91/76 51/66/76
f 55/72/78 74/94/78 73/93/77 53/70/77
f 57/74/79 75/95/79 74/94/78 55/72/78
f 59/76/80 76/96/80 75/95/79 57/74/79
f 61/78/81 77/97/82 76/96/80 59/76/80
f 63/80/83 78/98/84 77/97/82 61/78/81
f 65/82/85 79/99/85 78/100/84 63/83/83
f 67/86/86 80/101/86 79/99/85 65/82/85
f 44/59/73 69/88/73 80/101/86 67/86/86
f 68/102/87 81/103/88 82/104/89 69/105/89
f 70/106/90 83/107/91 81/103/88 68/102/87
f 71/108/92 84/109/93 83/107/91 70/106/90
f 72/110/94 85/111/95 84/109/93 71/108/92
f 73/112/96 86/113/97 85/111/95 72/110/94
f 74/114/98 87/115/99 86/113/97 73/112/96
f 75/116/100 88/117/101 87/115/99 74/114/98
f 76/118/102 89/119/102 88/117/101 75/116/100
f 77/120/103 90/121/103 89/119/102 76/118/102
f 78/122/104 91/123/104 90/121/105 77/120/105
f 79/124/106 92/125/107 91/123/104 78/122/104
f 80/126/108 93/127/108 92/125/107 79/124/106
f 69/105/89 82/104/89 93/127/108 80/126/108
f 94/128/109 95/129/109 96/130/109 97/131/109 98/132/109 99/133/109 100/134/109 101/135/109 102/136/109 103/137/109 104/138/109 105/139/109 106/140/109
f 107/141/110 108/142/110 109/143/110 110/144/110
f 111/145/111 86/113/111 112/146/111
f 82/104/112 81/103/111 88/117/111 89/119/112
f 90/121/113 91/123/114 92/125/115
f 93/127/116 82/104/112 89/119/112 90/121/113
f 86/113/111 87/115/111 113/147/111 112/146/111
f 113/147/111 87/115/111 88/117/111 114/148/111
f 111/145/111 115/149/111 84/109/111
f 84/109/111 115/149/111 116/150/111
f 108/151/111 81/103/111 83/107/111 109/152/111
f 83/107/111 84/109/111 116/150/111 109/152/111
f 114/148/111 88/117/111 81/103/111 108/151/111
f 117/153/111 118/154/111 107/155/111 110/156/111
f 110/144/117 109/143/117 116/157/117 119/158/117
f 119/159/111 120/160/111 121/161/111 122/162/111
f 119/158/118 116/157/118 115/163/118 120/164/118
f 122/162/111 117/153/111 110/156/111 119/159/111
f 120/165/119 115/166/119 111/167/119 121/168/119
f 117/169/120 113/170/120 114/171/120 118/172/120
f 121/168/121 111/167/121 112/173/121 122/174/121
f 118/175/122 114/176/122 108/142/122 107/141/122
f 122/174/123 112/173/123 113/170/123 117/169/123
f 84/109/111 85/111/111 86/113/111 111/145/111
f 4/4/124 94/128/124 106/140/125 1/1/126
f 25/25/127 95/129/128 94/128/124 4/4/124
f 23/23/129 96/130/130 95/129/128 25/25/127
f 21/21/131 97/131/131 96/130/130 23/23/129
f 19/19/132 98/132/133 97/131/131 21/21/131
f 17/17/134 99/133/135 98/132/133 19/19/132
f 15/15/136 100/134/137 99/133/135 17/17/134
f 13/13/138 101/135/139 100/134/137 15/15/136
f 11/11/140 102/136/141 101/135/139 13/13/138
f 9/9/142 103/137/143 102/136/141 11/11/140
f 7/7/144 104/138/145 103/137/143 9/9/142
f 5/5/146 105/139/147 104/138/145 7/7/144
f 1/1/126 106/140/125 105/139/147 5/5/146
f 60/77/64 123/177/148 124/178/149 62/79/66
f 58/75/62 36/179/36 123/177/148 60/77/64
f 56/73/60 34/180/34 36/179/36 58/75/62
f 54/71/58 33/181/33 34/180/34 56/73/60
f 52/69/56 32/182/32 33/181/33 54/71/58
f 50/65/54 31/183/31 32/182/32 52/69/56
f 48/68/52 30/184/30 31/183/31 50/65/54
f 46/61/50 29/185/29 30/186/30 48/63/52
f 42/57/46 27/187/27 29/185/29 46/61/50
f 45/60/49 28/188/28 27/187/27 42/57/46
f 66/85/70 40/189/43 28/188/28 45/60/49
f 64/81/68 41/190/44 40/189/43 66/85/70
f 62/84/66 124/191/149 41/190/44 64/81/68
f 37/49/150 36/47/150 35/46/150
f 124/192/151 123/193/152 37/49/38
f 41/56/153 124/192/151 38/51/41
f 92/125/115 93/127/116 90/121/113
f 37/49/154 123/193/154 36/47/154
f 37/49/150 35/46/150 18/45/150
f 37/49/38 20/48/37 22/50/40
f 37/49/38 38/51/41 124/192/151
f 38/51/42 39/53/42 41/56/42
f 38/51/41 22/50/40 24/52/155
