# Blender v2.90.0 OBJ File: ''
# www.blender.org
o Boat_Cube.002
v -3.813281 -1.000000 1.000000
v -3.813281 -1.000000 -1.566070
v 3.813282 -1.000000 -1.566070
v 3.813281 -1.000000 1.000000
v -4.091407 1.000000 1.000000
v -4.126517 1.000000 -1.566071
v 4.126517 1.000000 -1.566070
v 4.091406 1.000000 1.000000
v -3.079683 -3.107039 1.000000
v -3.079683 -3.107038 -1.566071
v 3.079687 -3.107039 1.000000
v 3.079688 -3.107038 -1.566070
v -0.235452 -4.672467 0.999999
v -0.175718 -4.672466 -1.566071
v 0.235451 -4.672467 1.000000
v 0.175719 -4.672466 -1.566071
v -3.813284 -1.000000 4.891128
v 3.813278 -1.000000 4.891129
v -4.074591 1.000000 4.891128
v 4.074588 1.000000 4.891128
v -3.079685 -3.107039 4.891128
v 3.079685 -3.107039 4.891128
v -0.264357 -4.672467 4.891127
v 0.264355 -4.672467 4.891128
v -3.786937 -1.000000 8.396782
v 3.786936 -1.000000 8.396783
v -4.073875 0.999999 8.396782
v 4.073870 0.999999 8.396782
v -3.079688 -3.107039 8.396781
v 3.079682 -3.107039 8.396782
v -0.283464 -4.628789 8.396781
v 0.283460 -4.628789 8.396782
v -3.786940 -1.000001 12.132710
v 3.786932 -1.000001 12.132711
v -4.067587 0.999999 12.132710
v 4.067580 0.999999 12.132710
v -3.079690 -3.107039 12.132710
v 3.079679 -3.107039 12.132710
v -0.259569 -4.585111 14.098230
v 0.259563 -4.585111 14.098231
v -3.574250 -1.000001 15.711706
v 3.574241 -1.000001 15.711708
v -3.825313 0.886964 15.711706
v 3.825304 0.886964 15.711706
v -2.667504 -3.107039 15.668027
v 2.667483 -3.107039 15.668027
v -1.000004 -4.257524 15.340440
v 0.999995 -4.257524 15.340441
v -3.813279 -0.999999 -4.736062
v 3.813285 -0.999999 -4.736062
v -4.161038 1.000001 -4.736063
v 4.161040 1.000001 -4.736062
v -3.079681 -3.107038 -4.736063
v 3.079690 -3.107038 -4.736063
v -0.115403 -4.672466 -4.736063
v 0.115405 -4.672466 -4.736063
v -3.497757 -0.999999 -7.641888
v 3.497759 -0.999999 -7.641888
v -3.635388 1.000001 -7.641889
v 3.635392 1.000001 -7.641888
v -2.441924 -3.107037 -7.641889
v 2.441926 -3.107037 -7.641889
v -0.061233 -4.628787 -7.641889
v 0.061234 -4.628787 -7.641889
v -2.894734 -0.999998 -9.792954
v 2.894736 -0.999998 -9.792954
v -3.132310 1.000001 -9.792955
v 3.132313 1.000001 -9.792953
v -1.532087 -3.107037 -9.792955
v 1.532089 -3.107037 -9.792955
v -0.087373 -4.585109 -9.792955
v 0.087375 -4.585109 -9.792955
v -2.231548 -0.999998 -11.076047
v 2.231551 -0.999998 -11.076047
v -2.701001 1.000002 -11.076048
v 2.701005 1.000002 -11.076046
v -0.809009 -3.107037 -11.076048
v 0.809012 -3.107037 -11.076048
v -0.072321 -4.585108 -11.076048
v 0.072323 -4.585108 -11.076048
v -0.095052 -0.999997 -15.279292
v 0.095056 -0.999997 -15.279292
v -0.122544 1.000003 -17.423893
v 0.122549 1.000003 -17.423893
v -0.099361 -3.107036 -13.248254
v 0.099365 -3.107036 -13.248254
v -0.056091 -4.213843 -12.160666
v 0.056093 -4.213843 -12.160666
v -3.819158 1.000001 -4.452473
v -3.787473 1.000000 -1.439505
v -3.755248 1.000000 0.999456
v 3.755248 1.000000 0.999457
v 3.787474 1.000000 -1.439504
v 3.819160 1.000001 -4.452472
v -3.739813 1.000000 4.697840
v 3.739811 1.000000 4.697840
v -3.733385 0.999999 11.580714
v -3.739156 1.000000 8.029843
v 3.739152 1.000000 8.029843
v 3.733379 0.999999 11.580715
v -3.511017 0.886964 14.982427
v 3.511009 0.886964 14.982427
v -2.874953 1.000001 -9.258876
v -3.336697 1.000001 -7.214360
v 3.336700 1.000001 -7.214359
v 2.874956 1.000001 -9.258874
v 0.112480 1.000003 -16.511818
v 2.479084 1.000002 -10.478409
v -2.479081 1.000002 -10.478411
v -0.112476 1.000003 -16.511818
v -3.819158 0.006326 -4.452473
v -3.787473 0.006325 -1.439505
v -3.755248 0.006325 0.999456
v 3.755248 0.006325 0.999457
v 3.787474 0.006325 -1.439504
v 3.819160 0.006326 -4.452472
v -3.739813 0.006325 4.697840
v 3.739811 0.006325 4.697840
v -3.733385 0.006325 12.368196
v -3.739156 0.006325 8.029843
v 3.739152 0.006325 8.029843
v 3.733379 0.006325 12.368197
v -3.511017 0.006325 14.982427
v 3.511009 0.006325 14.982427
v -2.874953 0.006327 -9.258876
v -3.336697 0.006326 -7.214360
v 3.336700 0.006326 -7.214359
v 2.874956 0.006327 -9.258874
v 0.112480 0.006328 -16.060320
v 2.479084 0.006327 -10.361610
v -2.479081 0.006327 -10.361612
v -0.112476 0.006328 -16.060320
v -2.944953 -2.420753 0.999456
v 2.944952 -2.420753 0.999456
v -2.932849 -2.420753 4.697839
v 2.932846 -2.420753 4.697839
v -2.927808 -2.420754 12.368196
v -2.932334 -2.420753 8.029843
v 2.932330 -2.420753 8.029843
v 2.927802 -2.420754 12.368197
v -2.606375 -3.010942 -4.452473
v -2.848275 -3.010943 -1.439505
v 2.848276 -3.010943 -1.439504
v 2.606377 -3.010942 -4.452472
v -2.277120 -3.010942 -7.214361
v 2.277123 -3.010942 -7.214360
v 0.318967 -1.790434 15.711833
v 0.878261 0.886082 15.725181
v 0.357410 -1.790434 16.170380
v 0.938055 0.703218 16.816391
v -0.308737 -1.790434 15.711833
v -0.868032 0.886082 15.725181
v -0.347181 -1.790434 16.170380
v -0.927826 0.703218 16.816391
v 0.840465 1.047959 15.725181
v 0.916149 1.047959 16.183727
v -0.905919 1.047959 16.183727
v -0.830236 1.047959 15.725181
v -0.821758 0.886082 14.987719
v 0.831988 0.886082 14.987719
v -0.788879 1.077131 14.987719
v 0.799109 1.077131 14.987719
v -0.800443 0.886082 14.806089
v 0.810672 0.886082 14.806089
v -0.788879 1.077131 14.806089
v 0.799109 1.077131 14.806089
v -0.821758 0.163635 14.987719
v 0.831988 0.163635 14.987719
v -0.800443 0.163635 14.806089
v 0.810672 0.163635 14.806089
vt 0.591391 0.326759
vt 0.663946 0.326491
vt 0.663946 0.423079
vt 0.592128 0.423346
vt 0.198884 0.242788
vt 0.212293 0.314910
vt 0.203572 0.321949
vt 0.191264 0.253399
vt 0.450955 0.366033
vt 0.502319 0.364858
vt 0.503834 0.428514
vt 0.452411 0.429705
vt 0.356569 0.395371
vt 0.305146 0.394179
vt 0.306944 0.315522
vt 0.358426 0.316730
vt 0.355054 0.459026
vt 0.303690 0.457851
vt 0.248833 0.456406
vt 0.301483 0.554402
vt 0.246626 0.552957
vt 0.506823 0.326491
vt 0.506823 0.262795
vt 0.580902 0.263063
vt 0.579378 0.326759
vt 0.397554 0.431151
vt 0.396099 0.367479
vt 0.250289 0.392734
vt 0.252087 0.314076
vt 0.589867 0.263063
vt 0.663946 0.262795
vt 0.578641 0.423346
vt 0.186051 0.189399
vt 0.179486 0.202655
vt 0.663946 0.510098
vt 0.592616 0.510358
vt 0.352819 0.555569
vt 0.350829 0.642555
vt 0.299450 0.641376
vt 0.244638 0.639943
vt 0.448748 0.269482
vt 0.500084 0.268315
vt 0.210517 0.457279
vt 0.210088 0.553856
vt 0.201548 0.549059
vt 0.201942 0.457265
vt 0.393891 0.270928
vt 0.506823 0.423079
vt 0.297331 0.734076
vt 0.242518 0.732643
vt 0.506823 0.510098
vt 0.578154 0.510358
vt 0.578763 0.651875
vt 0.506823 0.602833
vt 0.498094 0.181330
vt 0.446715 0.182509
vt 0.444596 0.089809
vt 0.495964 0.088633
vt 0.391903 0.183942
vt 0.001776 0.457279
vt 0.000881 0.393589
vt 0.009530 0.396731
vt 0.010352 0.457265
vt 0.103020 0.000000
vt 0.109273 0.000000
vt 0.109016 0.022638
vt 0.103277 0.022638
vt 0.389784 0.091242
vt 0.387083 0.003714
vt 0.442207 0.001103
vt 0.592006 0.651875
vt 0.610895 0.682653
vt 0.559875 0.682653
vt 0.348699 0.735252
vt 0.663946 0.602833
vt 0.211412 0.393589
vt 0.202764 0.396731
vt 0.882311 0.964124
vt 0.882311 0.786677
vt 0.936072 0.809185
vt 0.936072 0.941615
vt 0.834182 0.780444
vt 0.834182 0.970356
vt 0.965557 0.850577
vt 0.965557 0.900223
vt 0.490649 0.000000
vt 0.517338 0.690588
vt 0.294941 0.822782
vt 0.239817 0.820171
vt 0.343383 0.823885
vt 0.653431 0.690588
vt 0.308060 0.243271
vt 0.359187 0.244379
vt 0.252659 0.241673
vt 0.582441 0.184376
vt 0.506823 0.184108
vt 0.523092 0.111978
vt 0.583822 0.112238
vt 0.505691 0.507155
vt 0.454209 0.508363
vt 0.588328 0.184376
vt 0.399352 0.509808
vt 0.663946 0.184108
vt 0.546301 0.058583
vt 0.583156 0.058836
vt 0.455325 0.580614
vt 0.506452 0.579506
vt 0.506823 0.633118
vt 0.455527 0.634273
vt 0.002224 0.640866
vt 0.002205 0.553856
vt 0.010745 0.549059
vt 0.010762 0.631759
vt 0.586946 0.112238
vt 0.647677 0.111978
vt 0.399924 0.582212
vt 0.000000 0.314911
vt 0.013409 0.242788
vt 0.021029 0.253399
vt 0.008721 0.321949
vt 0.399609 0.636016
vt 0.455136 0.666424
vt 0.399117 0.668194
vt 0.587613 0.058836
vt 0.583539 0.026986
vt 0.587229 0.026986
vt 0.252344 0.187869
vt 0.212293 0.186416
vt 0.212995 0.154572
vt 0.251852 0.155690
vt 0.308262 0.189611
vt 0.359558 0.190767
vt 0.624467 0.058583
vt 0.583953 0.000000
vt 0.586815 0.000000
vt 0.223031 0.127845
vt 0.251886 0.101457
vt 0.359558 0.158726
vt 0.307871 0.157461
vt 0.306650 0.052158
vt 0.358808 0.000000
vt 0.026242 0.189399
vt 0.032808 0.202655
vt 0.506823 0.665159
vt 0.359558 0.637468
vt 0.360260 0.669313
vt 0.657774 0.823878
vt 0.657072 0.770301
vt 0.663324 0.770301
vt 0.662623 0.823878
vt 0.657182 0.690588
vt 0.662032 0.690588
vt 0.662142 0.742849
vt 0.657072 0.742849
vt 0.661038 0.770301
vt 0.658176 0.770301
vt 0.453915 0.771727
vt 0.399151 0.722428
vt 0.175048 0.157553
vt 0.169387 0.172386
vt 0.506073 0.823885
vt 0.370296 0.696040
vt 0.764729 0.372523
vt 0.765319 0.433067
vt 0.740028 0.433308
vt 0.739438 0.372763
vt 0.764229 0.229390
vt 0.764014 0.297733
vt 0.738723 0.297973
vt 0.738938 0.229631
vt 0.869886 0.255583
vt 0.869049 0.347377
vt 0.843758 0.347137
vt 0.844595 0.255342
vt 0.767677 0.000000
vt 0.764973 0.148743
vt 0.739707 0.151882
vt 0.742485 0.011446
vt 0.948376 0.174308
vt 0.948376 0.000000
vt 0.970841 0.000000
vt 0.970841 0.174308
vt 0.867744 0.482712
vt 0.867959 0.551054
vt 0.842669 0.550813
vt 0.842453 0.482471
vt 0.766156 0.524861
vt 0.740865 0.525102
vt 0.445270 0.823885
vt 0.451009 0.823885
vt 0.451009 0.848359
vt 0.445270 0.848359
vt 0.871407 0.084759
vt 0.870618 0.172888
vt 0.845327 0.172647
vt 0.846289 0.064974
vt 0.037245 0.157553
vt 0.042906 0.172386
vt 0.203729 0.822467
vt 0.008565 0.822467
vt 0.016582 0.804366
vt 0.195711 0.804366
vt 0.209909 0.733591
vt 0.201384 0.719891
vt 0.210070 0.640866
vt 0.201531 0.631759
vt 0.002384 0.733591
vt 0.010909 0.719891
vt 0.933616 0.539836
vt 0.933616 0.726269
vt 0.871407 0.727069
vt 0.871407 0.539036
vt 0.664241 0.373889
vt 0.663992 0.299214
vt 0.784195 0.254415
vt 0.784927 0.171721
vt 0.995521 0.539036
vt 0.995521 0.725469
vt 0.933616 0.705355
vt 0.933616 0.559150
vt 0.871407 0.539036
vt 0.871407 0.353688
vt 0.938086 0.359207
vt 0.938086 0.533516
vt 0.938086 0.539036
vt 0.938086 0.353688
vt 1.000000 0.373685
vt 1.000000 0.519039
vt 0.834182 1.000000
vt 0.663946 1.000000
vt 0.675725 0.949255
vt 0.822403 0.949255
vt 0.767677 0.549637
vt 0.767722 0.481230
vt 0.685824 0.921886
vt 0.812305 0.921886
vt 0.746195 0.780444
vt 0.751934 0.780444
vt 0.767677 0.695686
vt 0.765924 0.780231
vt 0.743510 0.780444
vt 0.742558 0.715470
vt 0.766888 0.607556
vt 0.741597 0.607797
vt 0.869654 0.000213
vt 0.847240 0.000000
vt 0.868703 0.631701
vt 0.871407 0.780444
vt 0.846215 0.768998
vt 0.843438 0.628562
vt 0.868459 0.407922
vt 0.843168 0.407681
vt 0.764567 0.178843
vt 0.739276 0.179084
vt 0.868297 0.601601
vt 0.843006 0.601361
vt 0.506823 0.690588
vt 0.657072 0.690588
vt 0.656763 0.782382
vt 0.507132 0.782382
vt 0.656750 0.865082
vt 0.507145 0.865081
vt 0.656635 0.972759
vt 0.507261 0.972759
vt 0.682156 0.716396
vt 0.681196 0.608724
vt 0.680465 0.526029
vt 0.679633 0.434236
vt 0.785886 0.064048
vt 0.783363 0.346208
vt 0.145317 0.965798
vt 0.000000 0.965798
vt 0.006171 0.891016
vt 0.139146 0.891016
vt 0.014570 0.822467
vt 0.130747 0.822467
vt 0.871407 0.353688
vt 0.871407 0.188033
vt 0.948365 0.214335
vt 0.948365 0.327386
vt 0.767971 0.406556
vt 0.871407 0.188033
vt 0.871407 0.000000
vt 0.948376 0.023314
vt 0.948376 0.164720
vt 0.663946 0.230807
vt 0.172539 0.822467
vt 0.173258 0.889681
vt 0.145317 0.885734
vt 0.160830 0.822733
vt 0.323157 0.886045
vt 0.308345 0.823885
vt 0.355943 0.823885
vt 0.341131 0.886045
vt 0.248285 0.824151
vt 0.263797 0.887152
vt 0.235857 0.891099
vt 0.236575 0.823885
vt 0.278065 0.890324
vt 0.263797 0.823885
vt 0.308345 0.823885
vt 0.294077 0.890324
vt 0.208518 0.822467
vt 0.208518 0.839957
vt 0.196821 0.839003
vt 0.196821 0.823421
vt 0.173352 0.893627
vt 0.161626 0.893955
vt 0.402982 0.858089
vt 0.356501 0.858089
vt 0.358432 0.846708
vt 0.401051 0.846708
vt 0.359487 0.828393
vt 0.399996 0.828393
vt 0.403541 0.873929
vt 0.355943 0.873929
vt 0.247488 0.895373
vt 0.235763 0.895045
vt 0.192189 0.893955
vt 0.192083 0.889279
vt 0.196724 0.889163
vt 0.196821 0.893875
vt 0.871407 0.770418
vt 0.871407 0.727069
vt 0.890219 0.728218
vt 0.890219 0.769269
vt 0.216925 0.895373
vt 0.217031 0.890697
vt 0.408414 0.823885
vt 0.408414 0.863878
vt 0.403541 0.863591
vt 0.403541 0.824172
vt 0.445270 0.823885
vt 0.445270 0.864936
vt 0.426843 0.864936
vt 0.426843 0.823885
vt 0.212293 0.895293
vt 0.212390 0.890581
vt 0.359487 0.823885
vt 0.399996 0.823885
vt 0.661705 0.823878
vt 0.661705 0.864929
vt 0.657072 0.864400
vt 0.657072 0.824407
vt 0.212739 0.872691
vt 0.217380 0.872806
vt 0.191735 0.871388
vt 0.196376 0.871273
vt 0.426843 0.823885
vt 0.426843 0.863878
vn 0.2495 -0.9684 -0.0019
vn 0.7636 -0.6457 -0.0020
vn 0.7652 -0.6438 0.0016
vn 0.2493 -0.9684 0.0038
vn -0.0000 1.0000 0.0000
vn -0.9719 -0.2355 0.0022
vn -0.7540 0.6569 0.0034
vn -0.7601 0.6498 0.0047
vn -0.9701 -0.2427 0.0030
vn 0.7601 0.6498 0.0046
vn 0.9701 -0.2427 0.0030
vn 0.9654 -0.2506 -0.0720
vn 0.7720 0.6334 -0.0531
vn 0.7540 0.6569 0.0034
vn 0.9719 -0.2355 0.0022
vn 0.9728 -0.2315 0.0024
vn -0.7636 -0.6457 -0.0020
vn -0.7612 -0.6486 -0.0027
vn -0.2444 -0.9697 -0.0026
vn -0.2495 -0.9684 -0.0019
vn 0.7612 -0.6486 -0.0027
vn 0.7619 -0.6450 -0.0593
vn 0.2444 -0.9697 -0.0026
vn -0.2493 -0.9684 0.0038
vn 0.7649 -0.6442 0.0035
vn 0.2470 -0.9690 0.0076
vn 0.7528 0.6583 0.0023
vn 0.7545 0.6563 0.0017
vn 0.9731 -0.2306 0.0021
vn -0.9728 -0.2315 0.0024
vn -0.7528 0.6583 0.0022
vn -0.7652 -0.6438 0.0016
vn 0.9704 -0.2388 0.0359
vn 0.7664 -0.6418 0.0283
vn -0.7649 -0.6442 0.0035
vn -0.2470 -0.9690 0.0076
vn -0.2124 -0.9722 0.0981
vn -0.7664 -0.6418 0.0283
vn -0.7545 0.6563 0.0018
vn -0.9731 -0.2306 0.0021
vn -0.9704 -0.2388 0.0359
vn -0.7415 0.6696 0.0422
vn -0.5419 -0.5049 0.6719
vn -0.6862 -0.1819 0.7043
vn 0.2124 -0.9722 0.0981
vn 0.2481 -0.7762 0.5797
vn -0.2481 -0.7762 0.5797
vn 0.7415 0.6696 0.0422
vn 0.6862 -0.1819 0.7043
vn 0.5419 -0.5049 0.6719
vn -0.5975 0.5418 0.5912
vn 0.5975 0.5418 0.5912
vn 0.9400 -0.2693 -0.2096
vn 0.7339 0.6632 -0.1467
vn 0.7408 -0.6500 -0.1693
vn -0.2503 -0.9679 -0.0221
vn -0.7619 -0.6450 -0.0593
vn -0.7408 -0.6500 -0.1693
vn -0.2881 -0.9557 -0.0610
vn -0.7720 0.6334 -0.0531
vn -0.9654 -0.2506 -0.0720
vn 0.2503 -0.9679 -0.0221
vn -0.7492 -0.6039 -0.2719
vn -0.3848 -0.9171 -0.1044
vn -0.9400 -0.2693 -0.2096
vn -0.7339 0.6632 -0.1467
vn -0.7190 0.6512 -0.2427
vn -0.8883 -0.3101 -0.3386
vn 0.2881 -0.9557 -0.0610
vn -0.8435 -0.3658 -0.3934
vn -0.8194 -0.4833 -0.3084
vn 0.3848 -0.9171 -0.1044
vn -0.4599 -0.8587 -0.2259
vn 0.4599 -0.8587 -0.2259
vn 0.7492 -0.6039 -0.2719
vn 0.8194 -0.4833 -0.3084
vn 0.8883 -0.3101 -0.3386
vn 0.7190 0.6512 -0.2427
vn -0.4881 -0.7363 -0.4686
vn 0.4881 -0.7363 -0.4686
vn 0.4807 -0.6423 -0.5970
vn 0.7247 0.6124 -0.3159
vn 0.8435 -0.3658 -0.3934
vn 0.4912 -0.6114 -0.6203
vn 0.4345 0.3334 -0.8367
vn -0.7247 0.6124 -0.3159
vn -0.4912 -0.6114 -0.6203
vn -0.4345 0.3334 -0.8367
vn -0.4807 -0.6423 -0.5970
vn 0.9999 0.0000 -0.0119
vn 1.0000 0.0000 -0.0087
vn 0.9851 0.0000 0.1721
vn -1.0000 0.0000 -0.0022
vn -1.0000 -0.0000 -0.0087
vn 0.9221 0.1064 0.3720
vn 0.0000 0.0000 -1.0000
vn 0.9999 0.0000 -0.0105
vn -0.9851 0.0000 0.1721
vn 1.0000 0.0000 -0.0022
vn 0.0000 0.4137 0.9104
vn -1.0000 -0.0006 -0.0015
vn -1.0000 -0.0003 -0.0008
vn 0.0564 0.9980 0.0286
vn -0.0564 0.9980 0.0286
vn 0.9414 0.3357 0.0328
vn -0.9490 0.3154 -0.0006
vn -0.9488 0.3158 -0.0019
vn -0.9488 0.3158 -0.0018
vn -0.0000 -0.0000 1.0000
vn -0.9271 0.3491 0.1362
vn 0.9967 -0.0312 -0.0743
vn 1.0000 -0.0003 -0.0008
vn 1.0000 -0.0006 -0.0015
vn -0.9967 -0.0312 -0.0743
vn -0.9221 0.1064 0.3720
vn -0.9999 -0.0000 -0.0119
vn 0.9754 0.0000 0.2203
vn -0.9463 0.0190 0.3226
vn -0.9999 0.0000 -0.0105
vn 0.9463 0.0190 0.3226
vn -0.9754 0.0000 0.2203
vn 0.9490 0.3154 -0.0006
vn 0.9490 0.3152 -0.0011
vn 0.9487 0.3161 -0.0035
vn 0.9488 0.3158 -0.0019
vn 0.9488 0.3158 -0.0018
vn -0.9490 0.3152 -0.0011
vn -0.9487 0.3161 -0.0035
vn -0.9414 0.3357 0.0328
vn 0.9271 0.3491 0.1362
vn 0.9752 -0.2041 -0.0859
vn 0.0000 -0.2508 0.9680
vn -0.9752 -0.2041 -0.0859
vn 0.0000 0.0050 -1.0000
vn 0.0000 -1.0000 -0.0000
vn 0.9963 0.0101 -0.0859
vn 0.0000 0.9992 0.0395
vn 0.0000 0.8781 0.4785
vn -0.9963 0.0101 -0.0859
vn 0.9916 0.1153 -0.0582
vn -0.9791 0.1961 -0.0543
vn 0.9791 0.1961 -0.0543
vn -0.9916 0.1153 -0.0582
vn -0.9932 0.0000 -0.1166
vn 0.9932 0.0000 -0.1166
s 1
f 15/1/1 11/2/2 22/3/3 24/4/4
f 59/5/5 51/6/5 89/7/5 104/8/5
f 1/9/6 5/10/7 6/11/8 2/12/9
f 7/13/10 3/14/11 50/15/12 52/16/13
f 3/14/11 7/13/10 8/17/14 4/18/15
f 11/19/2 4/18/15 18/20/16 22/21/3
f 9/22/17 10/23/18 14/24/19 13/25/20
f 1/9/6 2/12/9 10/26/18 9/27/17
f 3/14/11 4/18/15 11/19/2 12/28/21
f 3/14/11 12/28/21 54/29/22 50/15/12
f 13/25/20 14/24/19 16/30/23 15/1/1
f 12/31/21 11/2/2 15/1/1 16/30/23
f 13/25/20 15/1/1 24/4/4 23/32/24
f 67/33/5 59/5/5 104/8/5 103/34/5
f 24/4/4 22/3/3 30/35/25 32/36/26
f 18/20/16 20/37/27 28/38/28 26/39/29
f 22/21/3 18/20/16 26/39/29 30/40/25
f 5/10/7 1/9/6 17/41/30 19/42/31
f 5/43/5 19/44/5 95/45/5 91/46/5
f 4/18/15 8/17/14 20/37/27 18/20/16
f 1/9/6 9/27/17 21/47/32 17/41/30
f 9/22/17 13/25/20 23/32/24 21/48/32
f 30/40/25 26/39/29 34/49/33 38/50/34
f 29/51/35 31/52/36 39/53/37 37/54/38
f 27/55/39 25/56/40 33/57/41 35/58/42
f 23/32/24 24/4/4 32/36/26 31/52/36
f 17/41/30 21/47/32 29/59/35 25/56/40
f 8/60/5 7/61/5 93/62/5 92/63/5
f 19/42/31 17/41/30 25/56/40 27/55/39
f 21/48/32 23/32/24 31/52/36 29/51/35
f 84/64/5 83/65/5 110/66/5 107/67/5
f 33/57/41 37/68/38 45/69/43 41/70/44
f 39/53/37 40/71/45 48/72/46 47/73/47
f 26/39/29 28/38/28 36/74/48 34/49/33
f 32/36/26 30/35/25 38/75/34 40/71/45
f 31/52/36 32/36/26 40/71/45 39/53/37
f 25/56/40 29/59/35 37/68/38 33/57/41
f 51/6/5 6/76/5 90/77/5 89/7/5
f 42/78/49 41/79/44 45/80/43 46/81/50
f 43/82/51 41/79/44 42/78/49 44/83/52
f 46/81/50 45/80/43 47/84/47 48/85/46
f 35/58/42 33/57/41 41/70/44 43/86/51
f 37/54/38 39/53/37 47/73/47 45/87/43
f 38/50/34 34/49/33 42/88/49 46/89/50
f 34/49/33 36/74/48 44/90/52 42/88/49
f 40/71/45 38/75/34 46/91/50 48/72/46
f 52/16/13 50/15/12 58/92/53 60/93/54
f 50/15/12 54/29/22 62/94/55 58/92/53
f 55/95/56 53/96/57 61/97/58 63/98/59
f 2/12/9 6/11/8 51/99/60 49/100/61
f 14/24/19 10/23/18 53/96/57 55/95/56
f 16/30/23 14/24/19 55/95/56 56/101/62
f 10/26/18 2/12/9 49/100/61 53/102/57
f 12/31/21 16/30/23 56/101/62 54/103/22
f 63/98/59 61/97/58 69/104/63 71/105/64
f 57/106/65 59/107/66 67/108/67 65/109/68
f 28/110/5 20/111/5 96/112/5 99/113/5
f 54/103/22 56/101/62 64/114/69 62/115/55
f 56/101/62 55/95/56 63/98/59 64/114/69
f 53/102/57 49/100/61 57/106/65 61/116/58
f 52/117/5 60/118/5 105/119/5 94/120/5
f 49/100/61 51/99/60 59/107/66 57/106/65
f 69/121/63 65/109/68 73/122/70 77/123/71
f 72/124/72 71/105/64 79/125/73 80/126/74
f 70/127/75 72/128/72 80/129/74 78/130/76
f 58/92/53 62/94/55 70/127/75 66/131/77
f 60/93/54 58/92/53 66/131/77 68/132/78
f 62/115/55 64/114/69 72/124/72 70/133/75
f 64/114/69 63/98/59 71/105/64 72/124/72
f 61/116/58 57/106/65 65/109/68 69/121/63
f 80/126/74 79/125/73 87/134/79 88/135/80
f 78/130/76 80/129/74 88/136/80 86/137/81
f 76/138/82 74/139/83 82/140/84 84/141/85
f 60/118/5 68/142/5 106/143/5 105/119/5
f 65/109/68 67/108/67 75/144/86 73/122/70
f 71/145/64 69/121/63 77/123/71 79/146/73
f 66/131/77 70/127/75 78/130/76 74/139/83
f 68/132/78 66/131/77 74/139/83 76/138/82
f 81/147/87 83/148/88 84/149/85 82/150/84
f 81/151/87 82/152/84 86/153/81 85/154/89
f 85/154/89 86/153/81 88/155/80 87/156/79
f 77/123/71 73/122/70 81/157/87 85/158/89
f 83/65/5 75/159/5 109/160/5 110/66/5
f 73/122/70 75/144/86 83/161/88 81/157/87
f 79/146/73 77/123/71 85/158/89 87/162/79
f 74/139/83 78/130/76 86/137/81 82/140/84
f 90/163/90 91/164/91 113/165/91 112/166/90
f 104/167/92 89/168/92 111/169/92 126/170/92
f 96/171/93 92/172/94 114/173/94 118/174/93
f 110/175/95 109/176/95 131/177/95 132/178/95
f 101/179/96 102/180/96 124/181/96 123/182/96
f 89/168/97 90/163/90 112/166/90 111/169/97
f 94/183/98 105/184/98 127/185/98 116/186/98
f 91/164/91 95/187/99 117/188/99 113/165/91
f 107/189/100 110/190/100 132/191/100 129/192/100
f 100/193/101 99/194/102 121/195/102 122/196/101
f 68/142/5 76/197/5 108/198/5 106/143/5
f 20/111/5 8/60/5 92/63/5 96/112/5
f 43/199/5 44/200/5 102/201/5 101/202/5
f 75/159/5 67/33/5 103/34/5 109/160/5
f 7/61/5 52/117/5 94/120/5 93/62/5
f 35/203/103 43/199/103 101/202/103 97/204/103
f 76/197/5 84/64/5 107/67/5 108/198/5
f 27/205/5 35/203/5 97/204/5 98/206/5
f 19/44/5 27/205/5 98/206/5 95/45/5
f 36/207/5 28/110/5 99/113/5 100/208/5
f 44/200/104 36/207/104 100/208/104 102/201/104
f 6/76/5 5/43/5 91/46/5 90/77/5
f 113/209/5 114/210/5 115/211/5 112/212/5
f 111/169/105 112/166/105 142/213/105 141/214/105
f 121/195/106 118/174/107 136/215/108 139/216/106
f 114/217/109 113/218/109 133/219/109 134/220/109
f 122/221/5 119/222/5 123/223/5 124/224/5
f 119/225/96 122/226/96 140/227/96 137/228/96
f 126/229/5 127/230/5 128/231/5 125/232/5
f 116/186/110 127/185/110 146/233/110 144/234/110
f 125/232/5 128/231/5 130/235/5 131/236/5
f 131/236/5 130/235/5 129/237/5 132/238/5
f 97/239/111 101/240/111 123/241/111 119/242/111
f 98/243/112 97/239/113 119/242/113 120/244/112
f 102/245/114 100/193/114 122/196/114 124/246/114
f 108/247/115 107/248/115 129/249/115 130/250/115
f 99/194/102 96/171/93 118/174/93 121/195/102
f 92/172/94 93/251/116 115/252/116 114/173/94
f 103/253/117 104/167/117 126/170/117 125/254/117
f 95/187/99 98/243/112 120/244/112 117/188/99
f 106/255/118 108/247/118 130/250/118 128/256/118
f 93/251/116 94/183/119 116/186/119 115/252/116
f 109/176/120 103/253/120 125/254/120 131/177/120
f 105/184/121 106/255/121 128/256/121 127/185/121
f 134/257/5 133/258/5 135/259/5 136/260/5
f 136/260/5 135/259/5 138/261/5 139/262/5
f 139/262/5 138/261/5 137/263/5 140/264/5
f 120/244/122 119/242/123 137/265/123 138/266/122
f 113/165/124 117/188/125 135/267/126 133/268/124
f 122/196/127 121/195/106 139/216/106 140/269/127
f 117/188/125 120/244/122 138/266/122 135/267/126
f 118/174/107 114/173/128 134/270/128 136/215/108
f 142/271/5 143/272/5 144/273/5 141/274/5
f 141/274/5 144/273/5 146/275/5 145/276/5
f 127/277/109 126/278/109 145/279/109 146/280/109
f 115/252/129 116/186/129 144/234/129 143/281/129
f 112/282/96 115/283/96 143/284/96 142/285/96
f 126/170/130 111/169/130 141/214/130 145/286/130
f 147/287/131 148/288/131 150/289/131 149/290/131
f 149/291/132 150/292/132 154/293/132 153/294/132
f 153/295/133 154/296/133 152/297/133 151/298/133
f 151/299/134 152/300/134 148/301/134 147/302/134
f 149/303/135 153/304/135 151/305/135 147/306/135
f 150/289/136 148/288/136 155/307/136 156/308/136
f 157/309/5 156/310/5 155/311/5 158/312/5
f 158/312/137 155/311/137 162/313/137 161/314/137
f 154/315/138 150/316/138 156/310/138 157/309/138
f 152/297/139 154/296/139 157/317/139 158/318/139
f 162/319/140 160/320/140 164/321/140 166/322/140
f 148/323/135 152/324/135 159/325/135 160/326/135
f 152/297/141 158/318/141 161/327/141 159/328/141
f 155/307/142 148/288/142 160/320/142 162/319/142
f 164/329/96 163/330/96 165/331/96 166/332/96
f 160/333/109 159/334/109 167/335/109 168/336/109
f 159/328/143 161/327/143 165/337/143 163/338/143
f 161/314/5 162/313/5 166/339/5 165/340/5
f 168/341/135 167/342/135 169/343/135 170/344/135
f 159/328/144 163/338/144 169/345/144 167/346/144
f 164/321/145 160/320/145 168/347/145 170/348/145
f 163/330/96 164/329/96 170/349/96 169/350/96
