# Blender v2.90.0 OBJ File: 'island.blend'
# www.blender.org
o Cylinder
v 1.118204 4.248874 -19.441204
v 1.118204 11.898873 -19.441204
v 1.274570 4.248874 -19.365902
v 1.274570 11.898873 -19.365902
v 1.313190 4.248874 -19.196699
v 1.313190 11.898873 -19.196699
v 1.204981 4.248874 -19.061010
v 1.204981 11.898873 -19.061010
v 1.031427 4.248874 -19.061010
v 1.031427 11.898873 -19.061010
v 0.923219 4.248874 -19.196699
v 0.923219 11.898873 -19.196699
v 0.961838 4.248874 -19.365902
v 0.961838 11.898873 -19.365902
vt 1.000000 0.500000
vt 1.000000 1.000000
vt 0.857143 1.000000
vt 0.857143 0.500000
vt 0.714286 1.000000
vt 0.714286 0.500000
vt 0.571429 1.000000
vt 0.571429 0.500000
vt 0.428571 1.000000
vt 0.428571 0.500000
vt 0.285714 1.000000
vt 0.285714 0.500000
vt 0.437640 0.399638
vt 0.250000 0.490000
vt 0.062360 0.399638
vt 0.016017 0.196595
vt 0.145868 0.033767
vt 0.354132 0.033767
vt 0.483983 0.196595
vt 0.142857 1.000000
vt 0.142857 0.500000
vt 0.000000 1.000000
vt 0.000000 0.500000
vt 0.750000 0.490000
vt 0.937640 0.399638
vt 0.983983 0.196595
vt 0.854132 0.033767
vt 0.645868 0.033767
vt 0.516017 0.196595
vt 0.562360 0.399638
vn 0.4339 0.0000 -0.9010
vn 0.9749 0.0000 -0.2225
vn 0.7818 0.0000 0.6235
vn 0.0000 0.0000 1.0000
vn -0.7818 0.0000 0.6235
vn 0.0000 1.0000 -0.0000
vn -0.9749 0.0000 -0.2225
vn -0.4339 0.0000 -0.9010
vn 0.0000 -1.0000 0.0000
s off
f 1/1/1 2/2/1 4/3/1 3/4/1
f 3/4/2 4/3/2 6/5/2 5/6/2
f 5/6/3 6/5/3 8/7/3 7/8/3
f 7/8/4 8/7/4 10/9/4 9/10/4
f 9/10/5 10/9/5 12/11/5 11/12/5
f 4/13/6 2/14/6 14/15/6 12/16/6 10/17/6 8/18/6 6/19/6
f 11/12/7 12/11/7 14/20/7 13/21/7
f 13/21/8 14/20/8 2/22/8 1/23/8
f 1/24/9 3/25/9 5/26/9 7/27/9 9/28/9 11/29/9 13/30/9
o Cylinder.001
v 3.234577 4.248874 -19.441204
v 3.234577 11.898873 -19.441204
v 3.390944 4.248874 -19.365902
v 3.390944 11.898873 -19.365902
v 3.429563 4.248874 -19.196699
v 3.429563 11.898873 -19.196699
v 3.321354 4.248874 -19.061010
v 3.321354 11.898873 -19.061010
v 3.147800 4.248874 -19.061010
v 3.147800 11.898873 -19.061010
v 3.039592 4.248874 -19.196699
v 3.039592 11.898873 -19.196699
v 3.078211 4.248874 -19.365902
v 3.078211 11.898873 -19.365902
vt 1.000000 0.500000
vt 1.000000 1.000000
vt 0.857143 1.000000
vt 0.857143 0.500000
vt 0.714286 1.000000
vt 0.714286 0.500000
vt 0.571429 1.000000
vt 0.571429 0.500000
vt 0.428571 1.000000
vt 0.428571 0.500000
vt 0.285714 1.000000
vt 0.285714 0.500000
vt 0.437640 0.399638
vt 0.250000 0.490000
vt 0.062360 0.399638
vt 0.016017 0.196595
vt 0.145868 0.033767
vt 0.354132 0.033767
vt 0.483983 0.196595
vt 0.142857 1.000000
vt 0.142857 0.500000
vt 0.000000 1.000000
vt 0.000000 0.500000
vt 0.750000 0.490000
vt 0.937640 0.399638
vt 0.983983 0.196595
vt 0.854132 0.033767
vt 0.645868 0.033767
vt 0.516017 0.196595
vt 0.562360 0.399638
vn 0.4339 0.0000 -0.9010
vn 0.9749 0.0000 -0.2225
vn 0.7818 0.0000 0.6235
vn 0.0000 0.0000 1.0000
vn -0.7818 0.0000 0.6235
vn 0.0000 1.0000 0.0000
vn -0.9749 0.0000 -0.2225
vn -0.4339 0.0000 -0.9010
vn 0.0000 -1.0000 0.0000
s off
f 15/31/10 16/32/10 18/33/10 17/34/10
f 17/34/11 18/33/11 20/35/11 19/36/11
f 19/36/12 20/35/12 22/37/12 21/38/12
f 21/38/13 22/37/13 24/39/13 23/40/13
f 23/40/14 24/39/14 26/41/14 25/42/14
f 18/43/15 16/44/15 28/45/15 26/46/15 24/47/15 22/48/15 20/49/15
f 25/42/16 26/41/16 28/50/16 27/51/16
f 27/51/17 28/50/17 16/52/17 15/53/17
f 15/54/18 17/55/18 19/56/18 21/57/18 23/58/18 25/59/18 27/60/18
o Cylinder.002
v 1.118204 4.248874 -19.441204
v 1.118204 11.898873 -19.441204
v 1.274570 4.248874 -19.365902
v 1.274570 11.898873 -19.365902
v 1.313190 4.248874 -19.196699
v 1.313190 11.898873 -19.196699
v 1.204981 4.248874 -19.061010
v 1.204981 11.898873 -19.061010
v 1.031427 4.248874 -19.061010
v 1.031427 11.898873 -19.061010
v 0.923219 4.248874 -19.196699
v 0.923219 11.898873 -19.196699
v 0.961838 4.248874 -19.365902
v 0.961838 11.898873 -19.365902
vt 1.000000 0.500000
vt 1.000000 1.000000
vt 0.857143 1.000000
vt 0.857143 0.500000
vt 0.714286 1.000000
vt 0.714286 0.500000
vt 0.571429 1.000000
vt 0.571429 0.500000
vt 0.428571 1.000000
vt 0.428571 0.500000
vt 0.285714 1.000000
vt 0.285714 0.500000
vt 0.437640 0.399638
vt 0.250000 0.490000
vt 0.062360 0.399638
vt 0.016017 0.196595
vt 0.145868 0.033767
vt 0.354132 0.033767
vt 0.483983 0.196595
vt 0.142857 1.000000
vt 0.142857 0.500000
vt 0.000000 1.000000
vt 0.000000 0.500000
vt 0.750000 0.490000
vt 0.937640 0.399638
vt 0.983983 0.196595
vt 0.854132 0.033767
vt 0.645868 0.033767
vt 0.516017 0.196595
vt 0.562360 0.399638
vn 0.4339 0.0000 -0.9010
vn 0.9749 0.0000 -0.2225
vn 0.7818 0.0000 0.6235
vn 0.0000 0.0000 1.0000
vn -0.7818 0.0000 0.6235
vn 0.0000 1.0000 -0.0000
vn -0.9749 0.0000 -0.2225
vn -0.4339 0.0000 -0.9010
vn 0.0000 -1.0000 0.0000
s off
f 29/61/19 30/62/19 32/63/19 31/64/19
f 31/64/20 32/63/20 34/65/20 33/66/20
f 33/66/21 34/65/21 36/67/21 35/68/21
f 35/68/22 36/67/22 38/69/22 37/70/22
f 37/70/23 38/69/23 40/71/23 39/72/23
f 32/73/24 30/74/24 42/75/24 40/76/24 38/77/24 36/78/24 34/79/24
f 39/72/25 40/71/25 42/80/25 41/81/25
f 41/81/26 42/80/26 30/82/26 29/83/26
f 29/84/27 31/85/27 33/86/27 35/87/27 37/88/27 39/89/27 41/90/27
o Cylinder.003
v 3.234577 4.248874 -19.441204
v 3.234577 11.898873 -19.441204
v 3.390944 4.248874 -19.365902
v 3.390944 11.898873 -19.365902
v 3.429563 4.248874 -19.196699
v 3.429563 11.898873 -19.196699
v 3.321354 4.248874 -19.061010
v 3.321354 11.898873 -19.061010
v 3.147800 4.248874 -19.061010
v 3.147800 11.898873 -19.061010
v 3.039592 4.248874 -19.196699
v 3.039592 11.898873 -19.196699
v 3.078211 4.248874 -19.365902
v 3.078211 11.898873 -19.365902
vt 1.000000 0.500000
vt 1.000000 1.000000
vt 0.857143 1.000000
vt 0.857143 0.500000
vt 0.714286 1.000000
vt 0.714286 0.500000
vt 0.571429 1.000000
vt 0.571429 0.500000
vt 0.428571 1.000000
vt 0.428571 0.500000
vt 0.285714 1.000000
vt 0.285714 0.500000
vt 0.437640 0.399638
vt 0.250000 0.490000
vt 0.062360 0.399638
vt 0.016017 0.196595
vt 0.145868 0.033767
vt 0.354132 0.033767
vt 0.483983 0.196595
vt 0.142857 1.000000
vt 0.142857 0.500000
vt 0.000000 1.000000
vt 0.000000 0.500000
vt 0.750000 0.490000
vt 0.937640 0.399638
vt 0.983983 0.196595
vt 0.854132 0.033767
vt 0.645868 0.033767
vt 0.516017 0.196595
vt 0.562360 0.399638
vn 0.4339 0.0000 -0.9010
vn 0.9749 0.0000 -0.2225
vn 0.7818 0.0000 0.6235
vn 0.0000 0.0000 1.0000
vn -0.7818 0.0000 0.6235
vn 0.0000 1.0000 0.0000
vn -0.9749 0.0000 -0.2225
vn -0.4339 0.0000 -0.9010
vn 0.0000 -1.0000 0.0000
s off
f 43/91/28 44/92/28 46/93/28 45/94/28
f 45/94/29 46/93/29 48/95/29 47/96/29
f 47/96/30 48/95/30 50/97/30 49/98/30
f 49/98/31 50/97/31 52/99/31 51/100/31
f 51/100/32 52/99/32 54/101/32 53/102/32
f 46/103/33 44/104/33 56/105/33 54/106/33 52/107/33 50/108/33 48/109/33
f 53/102/34 54/101/34 56/110/34 55/111/34
f 55/111/35 56/110/35 44/112/35 43/113/35
f 43/114/36 45/115/36 47/116/36 49/117/36 51/118/36 53/119/36 55/120/36
o Cylinder.004
v 1.118204 4.248874 -21.842260
v 1.118204 11.898873 -21.842260
v 1.274570 4.248874 -21.766958
v 1.274570 11.898873 -21.766958
v 1.313190 4.248874 -21.597755
v 1.313190 11.898873 -21.597755
v 1.204981 4.248874 -21.462067
v 1.204981 11.898873 -21.462067
v 1.031427 4.248874 -21.462067
v 1.031427 11.898873 -21.462067
v 0.923219 4.248874 -21.597755
v 0.923219 11.898873 -21.597755
v 0.961838 4.248874 -21.766958
v 0.961838 11.898873 -21.766958
vt 1.000000 0.500000
vt 1.000000 1.000000
vt 0.857143 1.000000
vt 0.857143 0.500000
vt 0.714286 1.000000
vt 0.714286 0.500000
vt 0.571429 1.000000
vt 0.571429 0.500000
vt 0.428571 1.000000
vt 0.428571 0.500000
vt 0.285714 1.000000
vt 0.285714 0.500000
vt 0.437640 0.399638
vt 0.250000 0.490000
vt 0.062360 0.399638
vt 0.016017 0.196595
vt 0.145868 0.033767
vt 0.354132 0.033767
vt 0.483983 0.196595
vt 0.142857 1.000000
vt 0.142857 0.500000
vt 0.000000 1.000000
vt 0.000000 0.500000
vt 0.750000 0.490000
vt 0.937640 0.399638
vt 0.983983 0.196595
vt 0.854132 0.033767
vt 0.645868 0.033767
vt 0.516017 0.196595
vt 0.562360 0.399638
vn 0.4339 0.0000 -0.9010
vn 0.9749 0.0000 -0.2225
vn 0.7818 0.0000 0.6235
vn 0.0000 0.0000 1.0000
vn -0.7818 0.0000 0.6235
vn 0.0000 1.0000 -0.0000
vn -0.9749 0.0000 -0.2225
vn -0.4339 0.0000 -0.9010
vn 0.0000 -1.0000 0.0000
s off
f 57/121/37 58/122/37 60/123/37 59/124/37
f 59/124/38 60/123/38 62/125/38 61/126/38
f 61/126/39 62/125/39 64/127/39 63/128/39
f 63/128/40 64/127/40 66/129/40 65/130/40
f 65/130/41 66/129/41 68/131/41 67/132/41
f 60/133/42 58/134/42 70/135/42 68/136/42 66/137/42 64/138/42 62/139/42
f 67/132/43 68/131/43 70/140/43 69/141/43
f 69/141/44 70/140/44 58/142/44 57/143/44
f 57/144/45 59/145/45 61/146/45 63/147/45 65/148/45 67/149/45 69/150/45
o Cylinder.005
v 3.234577 4.248874 -21.842260
v 3.234577 11.898873 -21.842260
v 3.390944 4.248874 -21.766958
v 3.390944 11.898873 -21.766958
v 3.429563 4.248874 -21.597755
v 3.429563 11.898873 -21.597755
v 3.321354 4.248874 -21.462067
v 3.321354 11.898873 -21.462067
v 3.147800 4.248874 -21.462067
v 3.147800 11.898873 -21.462067
v 3.039592 4.248874 -21.597755
v 3.039592 11.898873 -21.597755
v 3.078211 4.248874 -21.766958
v 3.078211 11.898873 -21.766958
vt 1.000000 0.500000
vt 1.000000 1.000000
vt 0.857143 1.000000
vt 0.857143 0.500000
vt 0.714286 1.000000
vt 0.714286 0.500000
vt 0.571429 1.000000
vt 0.571429 0.500000
vt 0.428571 1.000000
vt 0.428571 0.500000
vt 0.285714 1.000000
vt 0.285714 0.500000
vt 0.437640 0.399638
vt 0.250000 0.490000
vt 0.062360 0.399638
vt 0.016017 0.196595
vt 0.145868 0.033767
vt 0.354132 0.033767
vt 0.483983 0.196595
vt 0.142857 1.000000
vt 0.142857 0.500000
vt 0.000000 1.000000
vt 0.000000 0.500000
vt 0.750000 0.490000
vt 0.937640 0.399638
vt 0.983983 0.196595
vt 0.854132 0.033767
vt 0.645868 0.033767
vt 0.516017 0.196595
vt 0.562360 0.399638
vn 0.4339 0.0000 -0.9010
vn 0.9749 0.0000 -0.2225
vn 0.7818 0.0000 0.6235
vn 0.0000 0.0000 1.0000
vn -0.7818 0.0000 0.6235
vn 0.0000 1.0000 0.0000
vn -0.9749 0.0000 -0.2225
vn -0.4339 0.0000 -0.9010
vn 0.0000 -1.0000 0.0000
s off
f 71/151/46 72/152/46 74/153/46 73/154/46
f 73/154/47 74/153/47 76/155/47 75/156/47
f 75/156/48 76/155/48 78/157/48 77/158/48
f 77/158/49 78/157/49 80/159/49 79/160/49
f 79/160/50 80/159/50 82/161/50 81/162/50
f 74/163/51 72/164/51 84/165/51 82/166/51 80/167/51 78/168/51 76/169/51
f 81/162/52 82/161/52 84/170/52 83/171/52
f 83/171/53 84/170/53 72/172/53 71/173/53
f 71/174/54 73/175/54 75/176/54 77/177/54 79/178/54 81/179/54 83/180/54
o Cylinder.006
v 1.118204 3.722244 -24.910505
v 1.118204 11.767954 -24.910505
v 1.274570 3.722244 -24.835203
v 1.274570 11.767954 -24.835203
v 1.313190 3.722244 -24.666000
v 1.313190 11.767954 -24.666000
v 1.204981 3.722244 -24.530312
v 1.204981 11.767954 -24.530312
v 1.031427 3.722244 -24.530312
v 1.031427 11.767954 -24.530312
v 0.923219 3.722244 -24.666000
v 0.923219 11.767954 -24.666000
v 0.961838 3.722244 -24.835203
v 0.961838 11.767954 -24.835203
vt 1.000000 0.500000
vt 1.000000 1.000000
vt 0.857143 1.000000
vt 0.857143 0.500000
vt 0.714286 1.000000
vt 0.714286 0.500000
vt 0.571429 1.000000
vt 0.571429 0.500000
vt 0.428571 1.000000
vt 0.428571 0.500000
vt 0.285714 1.000000
vt 0.285714 0.500000
vt 0.437640 0.399638
vt 0.250000 0.490000
vt 0.062360 0.399638
vt 0.016017 0.196595
vt 0.145868 0.033767
vt 0.354132 0.033767
vt 0.483983 0.196595
vt 0.142857 1.000000
vt 0.142857 0.500000
vt 0.000000 1.000000
vt 0.000000 0.500000
vt 0.750000 0.490000
vt 0.937640 0.399638
vt 0.983983 0.196595
vt 0.854132 0.033767
vt 0.645868 0.033767
vt 0.516017 0.196595
vt 0.562360 0.399638
vn 0.4339 0.0000 -0.9010
vn 0.9749 0.0000 -0.2225
vn 0.7818 0.0000 0.6235
vn 0.0000 0.0000 1.0000
vn -0.7818 0.0000 0.6235
vn 0.0000 1.0000 0.0000
vn -0.9749 0.0000 -0.2225
vn -0.4339 0.0000 -0.9010
vn 0.0000 -1.0000 0.0000
s off
f 85/181/55 86/182/55 88/183/55 87/184/55
f 87/184/56 88/183/56 90/185/56 89/186/56
f 89/186/57 90/185/57 92/187/57 91/188/57
f 91/188/58 92/187/58 94/189/58 93/190/58
f 93/190/59 94/189/59 96/191/59 95/192/59
f 88/193/60 86/194/60 98/195/60 96/196/60 94/197/60 92/198/60 90/199/60
f 95/192/61 96/191/61 98/200/61 97/201/61
f 97/201/62 98/200/62 86/202/62 85/203/62
f 85/204/63 87/205/63 89/206/63 91/207/63 93/208/63 95/209/63 97/210/63
o Cylinder.007
v 3.234577 3.722244 -24.910505
v 3.234577 11.767954 -24.910505
v 3.390944 3.722244 -24.835203
v 3.390944 11.767954 -24.835203
v 3.429563 3.722244 -24.666000
v 3.429563 11.767954 -24.666000
v 3.321354 3.722244 -24.530312
v 3.321354 11.767954 -24.530312
v 3.147800 3.722244 -24.530312
v 3.147800 11.767954 -24.530312
v 3.039592 3.722244 -24.666000
v 3.039592 11.767954 -24.666000
v 3.078211 3.722244 -24.835203
v 3.078211 11.767954 -24.835203
vt 1.000000 0.500000
vt 1.000000 1.000000
vt 0.857143 1.000000
vt 0.857143 0.500000
vt 0.714286 1.000000
vt 0.714286 0.500000
vt 0.571429 1.000000
vt 0.571429 0.500000
vt 0.428571 1.000000
vt 0.428571 0.500000
vt 0.285714 1.000000
vt 0.285714 0.500000
vt 0.437640 0.399638
vt 0.250000 0.490000
vt 0.062360 0.399638
vt 0.016017 0.196595
vt 0.145868 0.033767
vt 0.354132 0.033767
vt 0.483983 0.196595
vt 0.142857 1.000000
vt 0.142857 0.500000
vt 0.000000 1.000000
vt 0.000000 0.500000
vt 0.750000 0.490000
vt 0.937640 0.399638
vt 0.983983 0.196595
vt 0.854132 0.033767
vt 0.645868 0.033767
vt 0.516017 0.196595
vt 0.562360 0.399638
vn 0.4339 0.0000 -0.9010
vn 0.9749 0.0000 -0.2225
vn 0.7818 0.0000 0.6235
vn 0.0000 0.0000 1.0000
vn -0.7818 0.0000 0.6235
vn 0.0000 1.0000 -0.0000
vn -0.9749 0.0000 -0.2225
vn -0.4339 0.0000 -0.9010
vn 0.0000 -1.0000 0.0000
s off
f 99/211/64 100/212/64 102/213/64 101/214/64
f 101/214/65 102/213/65 104/215/65 103/216/65
f 103/216/66 104/215/66 106/217/66 105/218/66
f 105/218/67 106/217/67 108/219/67 107/220/67
f 107/220/68 108/219/68 110/221/68 109/222/68
f 102/223/69 100/224/69 112/225/69 110/226/69 108/227/69 106/228/69 104/229/69
f 109/222/70 110/221/70 112/230/70 111/231/70
f 111/231/71 112/230/71 100/232/71 99/233/71
f 99/234/72 101/235/72 103/236/72 105/237/72 107/238/72 109/239/72 111/240/72
o Cylinder.008
v 1.118204 4.248874 -16.448978
v 1.118204 11.898873 -16.448978
v 1.274570 4.248874 -16.373676
v 1.274570 11.898873 -16.373676
v 1.313190 4.248874 -16.204473
v 1.313190 11.898873 -16.204473
v 1.204981 4.248874 -16.068785
v 1.204981 11.898873 -16.068785
v 1.031427 4.248874 -16.068785
v 1.031427 11.898873 -16.068785
v 0.923219 4.248874 -16.204473
v 0.923219 11.898873 -16.204473
v 0.961838 4.248874 -16.373676
v 0.961838 11.898873 -16.373676
vt 1.000000 0.500000
vt 1.000000 1.000000
vt 0.857143 1.000000
vt 0.857143 0.500000
vt 0.714286 1.000000
vt 0.714286 0.500000
vt 0.571429 1.000000
vt 0.571429 0.500000
vt 0.428571 1.000000
vt 0.428571 0.500000
vt 0.285714 1.000000
vt 0.285714 0.500000
vt 0.437640 0.399638
vt 0.250000 0.490000
vt 0.062360 0.399638
vt 0.016017 0.196595
vt 0.145868 0.033767
vt 0.354132 0.033767
vt 0.483983 0.196595
vt 0.142857 1.000000
vt 0.142857 0.500000
vt 0.000000 1.000000
vt 0.000000 0.500000
vt 0.750000 0.490000
vt 0.937640 0.399638
vt 0.983983 0.196595
vt 0.854132 0.033767
vt 0.645868 0.033767
vt 0.516017 0.196595
vt 0.562360 0.399638
vn 0.4339 0.0000 -0.9010
vn 0.9749 0.0000 -0.2225
vn 0.7818 0.0000 0.6235
vn 0.0000 0.0000 1.0000
vn -0.7818 0.0000 0.6235
vn 0.0000 1.0000 -0.0000
vn -0.9749 0.0000 -0.2225
vn -0.4339 0.0000 -0.9010
vn 0.0000 -1.0000 0.0000
s off
f 113/241/73 114/242/73 116/243/73 115/244/73
f 115/244/74 116/243/74 118/245/74 117/246/74
f 117/246/75 118/245/75 120/247/75 119/248/75
f 119/248/76 120/247/76 122/249/76 121/250/76
f 121/250/77 122/249/77 124/251/77 123/252/77
f 116/253/78 114/254/78 126/255/78 124/256/78 122/257/78 120/258/78 118/259/78
f 123/252/79 124/251/79 126/260/79 125/261/79
f 125/261/80 126/260/80 114/262/80 113/263/80
f 113/264/81 115/265/81 117/266/81 119/267/81 121/268/81 123/269/81 125/270/81
o Cylinder.009
v 3.234577 4.248874 -16.448978
v 3.234577 11.898873 -16.448978
v 3.390944 4.248874 -16.373676
v 3.390944 11.898873 -16.373676
v 3.429563 4.248874 -16.204473
v 3.429563 11.898873 -16.204473
v 3.321354 4.248874 -16.068785
v 3.321354 11.898873 -16.068785
v 3.147800 4.248874 -16.068785
v 3.147800 11.898873 -16.068785
v 3.039592 4.248874 -16.204473
v 3.039592 11.898873 -16.204473
v 3.078211 4.248874 -16.373676
v 3.078211 11.898873 -16.373676
vt 1.000000 0.500000
vt 1.000000 1.000000
vt 0.857143 1.000000
vt 0.857143 0.500000
vt 0.714286 1.000000
vt 0.714286 0.500000
vt 0.571429 1.000000
vt 0.571429 0.500000
vt 0.428571 1.000000
vt 0.428571 0.500000
vt 0.285714 1.000000
vt 0.285714 0.500000
vt 0.437640 0.399638
vt 0.250000 0.490000
vt 0.062360 0.399638
vt 0.016017 0.196595
vt 0.145868 0.033767
vt 0.354132 0.033767
vt 0.483983 0.196595
vt 0.142857 1.000000
vt 0.142857 0.500000
vt 0.000000 1.000000
vt 0.000000 0.500000
vt 0.750000 0.490000
vt 0.937640 0.399638
vt 0.983983 0.196595
vt 0.854132 0.033767
vt 0.645868 0.033767
vt 0.516017 0.196595
vt 0.562360 0.399638
vn 0.4339 0.0000 -0.9010
vn 0.9749 0.0000 -0.2225
vn 0.7818 0.0000 0.6235
vn 0.0000 0.0000 1.0000
vn -0.7818 0.0000 0.6235
vn 0.0000 1.0000 0.0000
vn -0.9749 0.0000 -0.2225
vn -0.4339 0.0000 -0.9010
vn 0.0000 -1.0000 0.0000
s off
f 127/271/82 128/272/82 130/273/82 129/274/82
f 129/274/83 130/273/83 132/275/83 131/276/83
f 131/276/84 132/275/84 134/277/84 133/278/84
f 133/278/85 134/277/85 136/279/85 135/280/85
f 135/280/86 136/279/86 138/281/86 137/282/86
f 130/283/87 128/284/87 140/285/87 138/286/87 136/287/87 134/288/87 132/289/87
f 137/282/88 138/281/88 140/290/88 139/291/88
f 139/291/89 140/290/89 128/292/89 127/293/89
f 127/294/90 129/295/90 131/296/90 133/297/90 135/298/90 137/299/90 139/300/90
o Plank_Cube.001
v 1.120000 11.674350 -13.846096
v 1.120000 11.325650 -13.846096
v 1.120000 11.674350 -24.984741
v 1.120000 11.325650 -24.984741
v 3.120000 11.674350 -13.846096
v 3.120000 11.325650 -13.846096
v 3.120000 11.674350 -24.984741
v 3.120000 11.325650 -24.984741
vt 0.375000 0.000000
vt 0.375000 0.250000
vt 0.625000 0.250000
vt 0.625000 0.000000
vt 0.375000 0.500000
vt 0.625000 0.500000
vt 0.375000 0.750000
vt 0.625000 0.750000
vt 0.375000 1.000000
vt 0.625000 1.000000
vt 0.125000 0.500000
vt 0.125000 0.750000
vt 0.875000 0.750000
vt 0.875000 0.500000
vn -1.0000 0.0000 0.0000
vn 0.0000 0.0000 -1.0000
vn 1.0000 0.0000 0.0000
vn 0.0000 0.0000 1.0000
vn 0.0000 1.0000 0.0000
vn 0.0000 -1.0000 0.0000
s off
f 141/301/91 143/302/91 144/303/91 142/304/91
f 143/302/92 147/305/92 148/306/92 144/303/92
f 147/305/93 145/307/93 146/308/93 148/306/93
f 145/307/94 141/309/94 142/310/94 146/308/94
f 143/311/95 141/312/95 145/307/95 147/305/95
f 148/306/96 146/308/96 142/313/96 144/314/96
